<svg xmlns="http://www.w3.org/2000/svg" viewBox="0 0 24 24" fill="none" stroke="currentColor" stroke-width="1.75" stroke-linecap="round" stroke-linejoin="round">
  <path d="M12 15a3 3 0 100-6 3 3 0 000 6z"/>
  <path d="M19.4 15a1.7 1.7 0 00.3 1.8l.1.1a2 2 0 11-2.8 2.8l-.1-.1a1.7 1.7 0 00-1.8-.3 1.7 1.7 0 00-1 1.5V21a2 2 0 01-4 0v-.1a1.7 1.7 0 00-1.1-1.5 1.7 1.7 0 00-1.8.3l-.1.1a2 2 0 11-2.8-2.8l.1-.1a1.7 1.7 0 00.3-1.8 1.7 1.7 0 00-1.5-1H3a2 2 0 010-4h.1a1.7 1.7 0 001.5-1.1 1.7 1.7 0 00-.3-1.8l-.1-.1a2 2 0 112.8-2.8l.1.1a1.7 1.7 0 001.8.3H9a1.7 1.7 0 001-1.5V3a2 2 0 014 0v.1a1.7 1.7 0 001 1.5 1.7 1.7 0 001.8-.3l.1-.1a2 2 0 112.8 2.8l-.1.1a1.7 1.7 0 00-.3 1.8V9a1.7 1.7 0 001.5 1H21a2 2 0 010 4h-.1a1.7 1.7 0 00-1.5 1z"/>
</svg>
